{"title":"Naruto_Shippuden_224 Bzingaz Eng subbed.mp4","uid":6597832,"size":52433335,"categoryP":"video","categoryS":"tv_shows","magnet":"?xt=urn:btih:a076bdcfd7906b84b1190dbb2a279c994dc2836e&amp;dn=Naruto_Shippuden_224+Bzingaz+Eng+subbed.mp4&amp;tr=udp%3A%2F%2Ftracker.openbittorrent.com%3A80&amp;tr=udp%3A%2F%2Fopen.demonii.com%3A1337&amp;tr=udp%3A%2F%2Ftracker.coppersurfer.tk%3A6969&amp;tr=udp%3A%2F%2Fexodus.desync.com%3A6969","seeders":0,"leechers":0,"uploader":"bzingaz","files":1,"time":1313088988,"description":"naruto shippuden 223 mp4 50 mb english subbed..please seed and comment...\n\n\nVideo\nID                               : 1\nFormat                           : AVC\nFormat/Info                      : Advanced Video Codec\nFormat profile                   : &lt;a class=&quot;__cf_email__&quot; href=&quot;/cdn-cgi/l/email-protection&quot; data-cfemail=&quot;ce86a7a9a68e82fce0ff&quot;&gt;[email&amp;#160;protected]&lt;/a&gt;&lt;script cf-hash='f9e31' type=&quot;text/javascript&quot;&gt;\n/* &lt;![CDATA[ */!function(){try{var t=&quot;currentScript&quot;in document?document.currentScript:function(){for(var t=document.getElementsByTagName(&quot;script&quot;),e=t.length;e--;)if(t[e].getAttribute(&quot;cf-hash&quot;))return t[e]}();if(t&amp;&amp;t.previousSibling){var e,r,n,i,c=t.previousSibling,a=c.getAttribute(&quot;data-cfemail&quot;);if(a){for(e=&quot;&quot;,r=parseInt(a.substr(0,2),16),n=2;a.length-n;n+=2)i=parseInt(a.substr(n,2),16)^r,e+=String.fromCharCode(i);e=document.createTextNode(e),c.parentNode.replaceChild(e,c)}}}catch(u){}}();/* ]]&gt; */&lt;/script&gt;\nFormat settings, CABAC           : Yes\nFormat settings, ReFrames        : 5 frames\nCodec ID                         : avc1\nCodec ID/Info                    : Advanced Video Coding\nDuration                         : 23mn 9s\nBit rate mode                    : Variable\nBit rate                         : 267 Kbps\nMaximum bit rate                 : 1 913 Kbps\nWidth                            : 512 pixels\nHeight                           : 288 pixels\nDisplay aspect ratio             : 16:9\nFrame rate mode                  : Constant\nFrame rate                       : 23.810 fps\nColor space                      : YUV\nChroma subsampling               : 4:2:0\nBit depth                        : 8 bits\nScan type                        : Progressive\nBits/(Pixel*Frame)               : 0.076\nStream size                      : 44.2 MiB (88%)\nWriting library                  : x264 core 112 r1834 a51816a\nEncoding settings                : cabac=1 / ref=5 / deblock=1:1:1 / analyse=0x3:0x133 / me=umh / subme=7 / psy=1 / psy_rd=0.40:0.00 / mixed_ref=1 / me_range=16 / chroma_me=1 / trellis=1 / 8x8dct=1 / cqm=0 / deadzone=21,11 / fast_pskip=0 / chroma_qp_offset=-2 / threads=12 / sliced_threads=0 / nr=0 / decimate=1 / interlaced=0 / constrained_intra=0 / bframes=3 / b_pyramid=2 / b_adapt=1 / b_bias=0 / direct=1 / weightb=1 / open_gop=0 / weightp=2 / keyint=250 / keyint_min=23 / scenecut=45 / intra_refresh=0 / rc_lookahead=40 / rc=2pass / mbtree=1 / bitrate=267 / ratetol=1.0 / qcomp=0.60 / qpmin=0 / qpmax=51 / qpstep=4 / cplxblur=20.0 / qblur=0.5 / ip_ratio=1.40 / aq=1:0.00\nEncoded date                     : UTC 2011-08-10 12:49:34\nTagged date                      : UTC 2011-08-10 12:49:36\n\n\nAudio\nID                               : 2\nFormat                           : AAC\nFormat/Info                      : Advanced Audio Codec\nFormat profile                   : HE-AAC / LC\nCodec ID                         : 40\nDuration                         : 23mn 9s\nBit rate mode                    : Variable\nBit rate                         : 32.0 Kbps\nMaximum bit rate                 : 39.4 Kbps\nChannel(s)                       : 2 channels\nChannel positions                : Front: L R\nSampling rate                    : 44.1 KHz / 22.05 KHz\nCompression mode                 : Lossy\nStream size                      : 5.30 MiB (11%)\nEncoded date                     : UTC 2011-08-10 12:49:36\nTagged date                      : UTC 2011-08-10 12:49:36\n\nScreenShots: &lt;a href=&quot;\nhttp://bayimg.com/OaJJjaadi&quot; rel=&quot;nofollow&quot; target=&quot;_NEW&quot;&gt;\nhttp://bayimg.com/OaJJjaadi&lt;/a&gt; &lt;a href=&quot;\nhttp://bayimg.com/oajjPaadI&quot; rel=&quot;nofollow&quot; target=&quot;_NEW&quot;&gt;\nhttp://bayimg.com/oajjPaadI&lt;/a&gt;","torrent":{"xt":"urn:btih:a076bdcfd7906b84b1190dbb2a279c994dc2836e","amp;dn":"Naruto_Shippuden_224+Bzingaz+Eng+subbed.mp4","amp;tr":["udp%3A%2F%2Ftracker.openbittorrent.com%3A80","udp%3A%2F%2Fopen.demonii.com%3A1337","udp%3A%2F%2Ftracker.coppersurfer.tk%3A6969","udp%3A%2F%2Fexodus.desync.com%3A6969"],"infoHash":"a076bdcfd7906b84b1190dbb2a279c994dc2836e","infoHashBuffer":{"type":"Buffer","data":[160,118,189,207,215,144,107,132,177,25,13,187,42,39,156,153,77,194,131,110]},"announce":[],"urlList":[]}}